<mxfile host="Electron" modified="2023-06-01T12:13:45.730Z" agent="Mozilla/5.0 (Macintosh; Intel Mac OS X 10_15_7) AppleWebKit/537.36 (KHTML, like Gecko) draw.io/21.2.8 Chrome/112.0.5615.165 Electron/24.2.0 Safari/537.36" etag="hUXIwut-BXMKQ8XRIrXf" version="21.2.8" type="device">
  <diagram name="Page-1" id="nKn1tsEERxkJ7O_jjuu4">
    <mxGraphModel dx="984" dy="645" grid="1" gridSize="10" guides="1" tooltips="1" connect="1" arrows="1" fold="1" page="1" pageScale="1" pageWidth="1169" pageHeight="827" math="0" shadow="0">
      <root>
        <mxCell id="0" />
        <mxCell id="1" parent="0" />
        <mxCell id="gljU8tMCBGomwoV_KUzh-19" value="Choose..." style="html=1;shadow=0;dashed=0;shape=mxgraph.bootstrap.rrect;rSize=5;fillColor=#ffffff;strokeColor=#999999;align=left;spacing=15;fontSize=14;fontColor=#6C767D;" vertex="1" parent="1">
          <mxGeometry x="540" y="288.41999999999996" width="100" height="30" as="geometry" />
        </mxCell>
        <mxCell id="gljU8tMCBGomwoV_KUzh-37" style="edgeStyle=orthogonalEdgeStyle;rounded=0;orthogonalLoop=1;jettySize=auto;html=1;entryX=1;entryY=0.5;entryDx=0;entryDy=0;" edge="1" parent="1" source="gljU8tMCBGomwoV_KUzh-23" target="gljU8tMCBGomwoV_KUzh-35">
          <mxGeometry relative="1" as="geometry">
            <Array as="points">
              <mxPoint x="780" y="303" />
              <mxPoint x="780" y="445" />
            </Array>
          </mxGeometry>
        </mxCell>
        <mxCell id="gljU8tMCBGomwoV_KUzh-23" value="Submit" style="html=1;shadow=0;dashed=0;shape=mxgraph.bootstrap.rrect;rSize=5;fillColor=#0085FC;strokeColor=none;align=center;spacing=15;fontSize=14;fontColor=#ffffff;sketch=0;" vertex="1" parent="1">
          <mxGeometry x="650" y="288.41999999999996" width="60" height="30" as="geometry" />
        </mxCell>
        <mxCell id="gljU8tMCBGomwoV_KUzh-24" value="" style="verticalLabelPosition=bottom;html=1;verticalAlign=top;align=center;strokeColor=none;fillColor=#00BEF2;shape=mxgraph.azure.script_file;pointerEvents=1;" vertex="1" parent="1">
          <mxGeometry x="320.63" y="200" width="88.75" height="93.42" as="geometry" />
        </mxCell>
        <mxCell id="gljU8tMCBGomwoV_KUzh-25" value="GAS&lt;br&gt;自動生成スクリプト" style="text;html=1;align=center;verticalAlign=middle;resizable=0;points=[];autosize=1;strokeColor=none;fillColor=none;" vertex="1" parent="1">
          <mxGeometry x="300" y="288.42" width="130" height="40" as="geometry" />
        </mxCell>
        <mxCell id="gljU8tMCBGomwoV_KUzh-26" value="" style="sketch=0;pointerEvents=1;shadow=0;dashed=0;html=1;strokeColor=none;fillColor=#505050;labelPosition=center;verticalLabelPosition=bottom;verticalAlign=top;outlineConnect=0;align=center;shape=mxgraph.office.services.excel_services;" vertex="1" parent="1">
          <mxGeometry x="80" y="200" width="97.96" height="80" as="geometry" />
        </mxCell>
        <mxCell id="gljU8tMCBGomwoV_KUzh-27" value="Excel or Spread&lt;br&gt;エントリーリストを挿入する" style="text;html=1;align=center;verticalAlign=middle;resizable=0;points=[];autosize=1;strokeColor=none;fillColor=none;" vertex="1" parent="1">
          <mxGeometry x="38.980000000000004" y="293.42" width="180" height="40" as="geometry" />
        </mxCell>
        <mxCell id="gljU8tMCBGomwoV_KUzh-28" value="" style="shape=flexArrow;endArrow=classic;html=1;rounded=0;" edge="1" parent="1">
          <mxGeometry width="50" height="50" relative="1" as="geometry">
            <mxPoint x="200" y="246.21" as="sourcePoint" />
            <mxPoint x="280" y="246.21" as="targetPoint" />
          </mxGeometry>
        </mxCell>
        <mxCell id="gljU8tMCBGomwoV_KUzh-29" value="GAS&lt;br&gt;自動生成スクリプト" style="text;html=1;align=center;verticalAlign=middle;resizable=0;points=[];autosize=1;strokeColor=none;fillColor=none;" vertex="1" parent="1">
          <mxGeometry x="540" y="328.41999999999996" width="130" height="40" as="geometry" />
        </mxCell>
        <mxCell id="gljU8tMCBGomwoV_KUzh-36" style="edgeStyle=orthogonalEdgeStyle;rounded=0;orthogonalLoop=1;jettySize=auto;html=1;entryX=1;entryY=0.5;entryDx=0;entryDy=0;" edge="1" parent="1" source="gljU8tMCBGomwoV_KUzh-30" target="gljU8tMCBGomwoV_KUzh-35">
          <mxGeometry relative="1" as="geometry">
            <Array as="points">
              <mxPoint x="780" y="177" />
              <mxPoint x="780" y="445" />
            </Array>
          </mxGeometry>
        </mxCell>
        <mxCell id="gljU8tMCBGomwoV_KUzh-30" value="" style="sketch=0;pointerEvents=1;shadow=0;dashed=0;html=1;strokeColor=none;fillColor=#505050;labelPosition=center;verticalLabelPosition=bottom;verticalAlign=top;outlineConnect=0;align=center;shape=mxgraph.office.services.excel_services;" vertex="1" parent="1">
          <mxGeometry x="556.02" y="136.71" width="97.96" height="80" as="geometry" />
        </mxCell>
        <mxCell id="gljU8tMCBGomwoV_KUzh-31" value="回答 Spread" style="text;html=1;align=center;verticalAlign=middle;resizable=0;points=[];autosize=1;strokeColor=none;fillColor=none;" vertex="1" parent="1">
          <mxGeometry x="560" y="231.71" width="90" height="30" as="geometry" />
        </mxCell>
        <mxCell id="gljU8tMCBGomwoV_KUzh-32" value="" style="shape=flexArrow;endArrow=classic;html=1;rounded=0;" edge="1" parent="1">
          <mxGeometry width="50" height="50" relative="1" as="geometry">
            <mxPoint x="430" y="243.42000000000004" as="sourcePoint" />
            <mxPoint x="530" y="190" as="targetPoint" />
          </mxGeometry>
        </mxCell>
        <mxCell id="gljU8tMCBGomwoV_KUzh-33" value="" style="shape=flexArrow;endArrow=classic;html=1;rounded=0;" edge="1" parent="1">
          <mxGeometry width="50" height="50" relative="1" as="geometry">
            <mxPoint x="430" y="260.13000000000005" as="sourcePoint" />
            <mxPoint x="530" y="300" as="targetPoint" />
          </mxGeometry>
        </mxCell>
        <mxCell id="gljU8tMCBGomwoV_KUzh-34" value="自動生成" style="text;html=1;align=center;verticalAlign=middle;resizable=0;points=[];autosize=1;strokeColor=none;fillColor=none;" vertex="1" parent="1">
          <mxGeometry x="450" y="238" width="70" height="30" as="geometry" />
        </mxCell>
        <mxCell id="gljU8tMCBGomwoV_KUzh-35" value="" style="image;aspect=fixed;perimeter=ellipsePerimeter;html=1;align=center;shadow=0;dashed=0;spacingTop=3;image=img/lib/active_directory/folder.svg;" vertex="1" parent="1">
          <mxGeometry x="570" y="400" width="65.7" height="90" as="geometry" />
        </mxCell>
        <mxCell id="gljU8tMCBGomwoV_KUzh-38" value="作成後格納" style="text;html=1;align=center;verticalAlign=middle;resizable=0;points=[];autosize=1;strokeColor=none;fillColor=none;" vertex="1" parent="1">
          <mxGeometry x="780" y="288.42" width="80" height="30" as="geometry" />
        </mxCell>
        <mxCell id="gljU8tMCBGomwoV_KUzh-39" value="" style="shape=flexArrow;endArrow=classic;html=1;rounded=0;" edge="1" parent="1">
          <mxGeometry width="50" height="50" relative="1" as="geometry">
            <mxPoint x="420" y="293.4200000000001" as="sourcePoint" />
            <mxPoint x="560" y="440" as="targetPoint" />
          </mxGeometry>
        </mxCell>
        <mxCell id="gljU8tMCBGomwoV_KUzh-40" value="作成日をフォルダ名とする" style="text;html=1;align=center;verticalAlign=middle;resizable=0;points=[];autosize=1;strokeColor=none;fillColor=none;" vertex="1" parent="1">
          <mxGeometry x="380" y="400" width="170" height="30" as="geometry" />
        </mxCell>
        <mxCell id="gljU8tMCBGomwoV_KUzh-41" value="yyyy/mm/dd" style="text;html=1;align=center;verticalAlign=middle;resizable=0;points=[];autosize=1;strokeColor=none;fillColor=none;" vertex="1" parent="1">
          <mxGeometry x="563.98" y="490" width="90" height="30" as="geometry" />
        </mxCell>
      </root>
    </mxGraphModel>
  </diagram>
</mxfile>
